<?xml version="1.0" standalone="no"?><!DOCTYPE svg PUBLIC "-//W3C//DTD SVG 1.1//EN" "http://www.w3.org/Graphics/SVG/1.1/DTD/svg11.dtd"><svg t="1492937159441" class="icon" style="" viewBox="0 0 1024 1024" version="1.1" xmlns="http://www.w3.org/2000/svg" p-id="3830" xmlns:xlink="http://www.w3.org/1999/xlink" width="200" height="200"><defs><style type="text/css"></style></defs><path d="M273.082435 921.547607c0-56.526411-45.826721-102.389972-102.392018-102.389972-56.558134 0-102.385878 45.862537-102.385878 102.389972 0 56.527434 45.827745 102.392018 102.385878 102.392018C227.255713 1023.938602 273.082435 978.075041 273.082435 921.547607z" p-id="3831" fill="#ffffff"></path><path d="M989.809166 921.547607c0-56.526411-45.827745-102.389972-102.387925-102.389972-56.56018 0-102.389972 45.862537-102.389972 102.389972 0 56.527434 45.828768 102.392018 102.389972 102.392018C943.980398 1023.938602 989.809166 978.075041 989.809166 921.547607z" p-id="3832" fill="#ffffff"></path><path d="M853.289886 150.626579 409.601715 150.626579c-37.696554 0-68.257593 30.53034-68.257593 68.258617 0 37.663808 30.56104 68.261687 68.257593 68.261687l443.688171 0c18.699897 0 29.097712 2.700505 34.131355 4.668323l0.031722 16.731056c-2.867304 34.060747-81.656765 152.051021-182.514847 174.382633-1.666966 0.264013-168.382988 29.063943-397.72535 29.063943-30.79947 0-34.131355-57.561997-34.131355-82.32703L273.081412 218.885196c0-48.591695-18.10024-166.81426-185.513134-216.075197C51.371891-7.825222 13.443046 12.873192 2.808848 49.03581c-10.630105 36.19741 10.066263 74.125231 46.230927 84.760452 87.523379 25.731034 87.523379 70.390163 87.523379 85.088934l0 210.779587c0 11.93175 0.63445 23.131837 1.566682 33.92874-0.99977 4.600785-1.566682 9.368368-1.566682 14.266935 0 398.059971 214.477816 409.555793 238.909252 409.555793l341.296153 0c37.699624 0 68.263733-30.563086 68.263733-68.258617 0-37.696554-30.56411-68.25657-68.263733-68.25657L375.471383 750.901065c-36.396955 0-62.092174-45.532009-78.623685-102.858646 3.465938 0.200568 6.931876 0.465604 10.365068 0.465604 242.107083 0 414.190347-29.861098 424.255587-31.729655 166.883845-36.795021 292.470121-211.975832 292.470121-307.566958L1023.938475 279.079136C1023.938475 234.651274 988.277277 150.626579 853.289886 150.626579z" p-id="3833" fill="#ffffff"></path></svg>