<?xml version="1.0" standalone="no"?><!DOCTYPE svg PUBLIC "-//W3C//DTD SVG 1.1//EN" "http://www.w3.org/Graphics/SVG/1.1/DTD/svg11.dtd"><svg t="1493461925857" class="icon" style="" viewBox="0 0 1024 1024" version="1.1" xmlns="http://www.w3.org/2000/svg" p-id="6221" xmlns:xlink="http://www.w3.org/1999/xlink" width="200" height="200"><defs><style type="text/css"></style></defs><path d="M810.905182 179.405019C655.417899 23.907503 403.378605 23.907503 247.871879 179.385577c-155.506726 155.466817-155.506726 407.556253 0 563.011814 155.506726 155.488307 407.54602 155.488307 563.03228 0C966.370976 586.940806 966.370976 334.871837 810.905182 179.405019zM785.319457 716.831109c-141.366681 141.347239-370.514615 141.347239-511.841388 0-141.366681-141.366681-141.366681-370.513592 0-511.87004C414.804842 63.644529 643.951753 63.644529 785.319457 205.000977 926.645207 346.317517 926.645207 575.464427 785.319457 716.831109z" p-id="6222"></path><path d="M693.595406 273.220708l23.454178 23.463388L365.161189 648.571469l-23.453155-23.462365L693.595406 273.220708z" p-id="6223"></path><path d="M717.049584 625.109104l-23.454178 23.462365L353.454566 308.421418l23.433712-23.473621L717.049584 625.109104z" p-id="6224"></path></svg>