<?xml version="1.0" standalone="no"?><!DOCTYPE svg PUBLIC "-//W3C//DTD SVG 1.1//EN" "http://www.w3.org/Graphics/SVG/1.1/DTD/svg11.dtd"><svg t="1493170515451" class="icon" style="" viewBox="0 0 1024 1024" version="1.1" xmlns="http://www.w3.org/2000/svg" p-id="2375" xmlns:xlink="http://www.w3.org/1999/xlink" width="200" height="200"><defs><style type="text/css"></style></defs><path d="M512 205.476c-270.845 0-490.438 306.524-490.438 306.524s219.595 306.524 490.438 306.524 490.438-306.524 490.438-306.524-219.595-306.524-490.438-306.524zM511.938 695.914c-101.596 0-183.853-82.497-183.853-184.276 0-101.772 82.259-184.239 183.853-184.239 101.716 0 183.977 82.467 183.977 184.239 0 101.778-82.26 184.276-183.977 184.276z" p-id="2376"></path><path d="M511.938 450.695c-33.767 0-61.243 27.477-61.243 61.305s27.476 61.305 61.243 61.305c33.827 0 61.366-27.476 61.366-61.305 0-33.828-27.539-61.305-61.366-61.305z" p-id="2377"></path></svg>