<?xml version="1.0" standalone="no"?><!DOCTYPE svg PUBLIC "-//W3C//DTD SVG 1.1//EN" "http://www.w3.org/Graphics/SVG/1.1/DTD/svg11.dtd"><svg t="1493170545250" class="icon" style="" viewBox="0 0 1024 1024" version="1.1" xmlns="http://www.w3.org/2000/svg" p-id="3686" xmlns:xlink="http://www.w3.org/1999/xlink" width="200" height="200"><defs><style type="text/css"></style></defs><path d="M724.924949 504.671081 317.784158 504.671081c-10.81123 0-19.628036 9.096169-19.628036 20.426215 0 11.236925 8.816806 20.402679 19.628036 20.402679l407.140791 0c10.771321 0 19.549242-9.16473 19.549242-20.402679C744.47419 513.76725 735.69627 504.671081 724.924949 504.671081z" p-id="3687"></path><path d="M900.188648 231.901651c0-35.707246-28.964682-64.671928-64.671928-64.671928L188.481234 167.229722c-35.666314 0-64.670905 28.964682-64.670905 64.671928l0 474.458989c0 35.707246 29.004591 64.711837 64.670905 64.711837l236.983389 0 86.574774 86.493933 86.493933-86.493933 236.982366 0c35.70827 0 64.671928-29.005614 64.671928-64.711837L900.187625 231.901651zM857.060385 684.817997c0 23.777543-19.310811 43.12724-43.128263 43.12724L576.990688 727.945237l-64.951291 64.912405-64.9912-64.912405L210.104717 727.945237c-23.857361 0-43.167149-19.348674-43.167149-43.12724L166.937568 253.485225c0-23.818475 19.309788-43.167149 43.167149-43.167149l603.827405 0c23.816428 0 43.128263 19.348674 43.128263 43.167149L857.060385 684.817997z" p-id="3688"></path><path d="M724.924949 366.750895 317.784158 366.750895c-10.81123 0-19.628036 9.136078-19.628036 20.466124 0 11.211343 8.816806 20.34742 19.628036 20.34742l407.140791 0c10.771321 0 19.549242-9.136078 19.549242-20.34742C744.47419 375.885949 735.69627 366.750895 724.924949 366.750895z" p-id="3689"></path></svg>