<?xml version="1.0" standalone="no"?><!DOCTYPE svg PUBLIC "-//W3C//DTD SVG 1.1//EN" "http://www.w3.org/Graphics/SVG/1.1/DTD/svg11.dtd"><svg class="icon" width="200px" height="200.00px" viewBox="0 0 1024 1024" version="1.1" xmlns="http://www.w3.org/2000/svg"><path d="M481.695299 50.807153l56.876382 0c226.187509 10.528797 421.645133 204.657146 434.597119 430.629761l0 56.873312c-10.31288 226.212068-204.442252 421.645133-430.199972 434.835549l-57.970296 0C259.238764 962.377524 64.020594 768.678964 50.830177 543.155581l0-57.987692C61.358975 258.765485 255.721661 63.759139 481.695299 50.807153zM391.667889 110.982674c-149.777235 43.921325-268.585131 177.655166-292.51924 332.023976-26.142403 146.475026 34.249035 303.499315 151.087067 395.287835C363.551528 931.198407 527.15977 956.671569 663.300426 902.202003c135.276986-51.170426 238.708684-177.442318 261.549901-320.615135 26.358321-146.259108-33.818223-303.71114-150.632719-395.501706C669.452543 99.765191 521.218454 71.223135 391.667889 110.982674z"  /><path d="M455.126176 456.17353c0-65.881476 0-131.763976 0-197.645452 37.981033 0 75.765591 0 113.746624 0 0 65.881476 0 131.763976 0 197.645452 65.431222 0 130.883933 0.234337 196.33562 0.234337 0 37.551244 0 75.105558 0 112.655779-65.451688 0-130.904399 0.213871-196.33562 0 0 65.451688 0 130.884956 0 196.313108-37.981033 0-75.766614 0-113.746624 0 0-65.428152-0.23843-130.86142 0-196.313108-65.431222 0.213871-130.883933 0-196.336644 0 0-37.550221 0-75.105558 0-112.655779C324.242244 456.407867 389.693932 456.17353 455.126176 456.17353z"  /></svg>