<?xml version="1.0" standalone="no"?><!DOCTYPE svg PUBLIC "-//W3C//DTD SVG 1.1//EN" "http://www.w3.org/Graphics/SVG/1.1/DTD/svg11.dtd"><svg class="icon" width="200px" height="200.00px" viewBox="0 0 1024 1024" version="1.1" xmlns="http://www.w3.org/2000/svg"><path d="M398.746966 724.324755c-20.840283 3.473983-79.887148 13.893522-114.620953 0-38.207787-17.3663-38.207787-62.520848-38.207787-65.993627v-38.207787L72.249203 800.740329h194.509305v187.562544l197.983288-201.456066-62.520848-65.994831-3.473982 3.472779zM770.40048 623.597324l-3.473983 31.259822c0 13.893522-6.946761 48.627326-27.787043 62.520848s-45.154548 13.893522-62.520848 13.893521h-13.893522c-20.840283 0-38.207787-10.419539-38.207787-10.419539l-10.41954-3.473982-59.048069 69.468813L753.032975 984.82889l3.473983-184.088561 194.509305-3.473983-180.615783-173.669022z"  /><path d="M607.150997 700.011693c6.946761-6.946761 24.313061 0 41.680565 3.472779 13.893522 3.473983 31.259822 10.420743 45.153344 10.420743 41.680565 0 62.522052-48.627326 62.522052-97.254652 0-20.840283 13.893522-31.261026 38.206583-48.627327l20.840283-10.420743c31.261026-20.840283 45.154548-34.733804 45.154547-69.467609 0-17.367504-10.420743-34.733804-20.840282-48.627326-6.946761-10.420743-13.893522-20.840283-17.367505-31.261026-3.472778-10.419539 6.946761-27.787044 13.893522-45.153344 10.420743-17.367504 20.840283-34.733804 20.840283-52.101309 0-41.680565-45.153344-59.04807-79.887148-76.41437l-6.946761-3.473982c-13.893522-6.946761-13.893522-20.840283-17.367505-45.153344 0-13.893522-3.473983-34.733804-10.420743-52.101309-17.3663-41.680565-59.046866-34.733804-93.78067-27.787044-10.420743 3.473983-20.840283 3.473983-31.261026 3.473983-24.313061 0-41.680565-17.367504-62.520848-41.680565l-3.472779-6.946761c-13.893522-13.893522-24.314265-20.840283-41.681769-24.314266-13.893522 0-31.259822 6.946761-45.153344 24.314266-17.367504 17.3663-34.733804 34.733804-41.680565 45.153343-17.367504-3.472778-59.04807-6.946761-93.781874-6.94676-65.994831 3.473983-65.994831 83.361131-65.994831 107.675396 0 20.840283-24.313061 38.206583-69.467609 55.574087-13.893522 6.946761-20.840283 13.893522-24.313061 24.314265-10.420743 20.840283 0 45.153344 20.840283 90.307892 17.3663 38.206583 3.472778 62.520848-17.367505 90.307891-3.472778 3.472778-6.946761 10.419539-10.419539 13.893522-10.420743 17.3663-6.946761 31.261026-3.473983 41.680565 10.420743 27.787044 45.154548 41.680565 69.467609 48.627327 27.787044 6.946761 41.68177 31.261026 41.68177 69.467609 0 31.261026 6.946761 65.994831 48.627326 65.99483 13.893522 0 27.787044 0 45.153344-3.473982 17.367504 0 31.261026-3.472778 45.154548-3.472779 6.946761 0 27.787044 17.3663 38.206583 31.259822 17.367504 17.367504 31.261026 31.261026 48.627326 38.207787 3.473983 0 6.946761 3.473983 10.420744 3.473983 34.733804 0 69.467609-34.735009 100.728635-72.941592zM287.598791 404.773753c0-125.041696 100.728635-225.770331 225.770331-225.770331s225.770331 100.728635 225.770332 225.770331-100.728635 225.770331-225.770332 225.770331-225.770331-100.728635-225.770331-225.770331z"  /><path d="M513.369122 206.790466c-107.675396 0-197.983288 86.835113-197.983287 197.983287 0 107.675396 86.835113 197.983288 197.983287 197.983288 107.675396 0 197.983288-86.835113 197.983288-197.983288 0-107.675396-90.307892-197.983288-197.983288-197.983287z m93.752975 263.314629c-1.453413 0-3.617277-0.71045-6.491591-2.163863-2.163864-1.436555-3.617277-2.163864-4.327727-2.163864-7.945004-2.874314-19.473569-5.038178-34.61941-6.491591-15.87315-1.436555-24.5274-1.08133-25.96516 1.08133-0.727309 2.889968-1.08133 11.900648-1.081329 27.046489-0.727309 28.838269-1.808638 45.437524-3.245194 49.765251-38.236687-5.78114-62.747229-16.599254-73.566547-32.455546 0-0.71045 2.163864-0.355225 6.491591 1.08133 10.818114 3.617277 19.473569 5.409057 25.965159 5.409057 14.419737 0 21.992657-4.327727 22.718762-12.981978 0.71045-9.364701 1.08133-18.020155 1.08133-25.965159 0.71045-7.200837 0.71045-10.818114 0-10.818114-0.727309 0-3.617277 0.372083-8.655454 1.081329a1852.41659 1852.41659 0 0 1-62.747229 7.572921c-3.617277 0.727309-8.300229 3.245193-14.064512 7.572921-3.617277 2.889968-6.136366 4.327727-7.572921 4.327727-2.163864 0-4.327727-2.519089-6.49159-7.572921-1.453413-7.200837-1.453413-11.173339 0-11.900648 33.892101-5.764282 66.704077-12.981978 98.449172-21.637432 1.436555-2.874314-0.727309-5.764282-6.491591-8.655454-4.327727-2.163864-6.491591-4.327727-6.491591-6.491591 0-3.600419 6.846816-5.409057 20.554899-5.409057h3.245193c2.874314-1.436555 5.764282-5.764282 8.655455-12.981978 0-5.764282-4.327727-8.283371-12.981978-7.572921-5.053832 0.727309-17.309705 9.026334-36.783273 24.882626l-5.409058 4.327727c-5.053832-2.163864-9.736784-7.200837-14.064511-15.145841 0-0.71045 5.764282-3.600419 17.309705-8.655455 15.856292-5.764282 24.156521-9.736784 24.882625-11.900648 0-8.655455-0.372083-13.337203-1.081329-14.064511-1.453413-3.600419-12.981978 0.727309-34.61941 12.981977-17.309705 10.818114-28.127819 16.228375-32.455546 16.228376-0.727309 0-2.534743 0.372083-5.409057 1.081329-4.327727 0.727309-6.491591 0.372083-6.491591-1.081329-0.727309-2.874314 10.818114-11.173339 34.61941-24.882626 6.491591-4.327727 10.447235-6.846816 11.900647-7.572921 16.582396-12.981978 24.510542-20.910124 23.801296-23.801295-3.617277-1.436555-12.626752 0.372083-27.046489 5.409057-5.78114 2.163864-9.026334 3.245193-9.736784 3.245193-7.945004-5.038178-12.981978-10.09201-15.145842-15.145841 0.71045-5.038178 14.064512-9.364701 40.028467-12.981978 11.528565-1.436555 18.74626-2.519089 21.637433-3.245193 0.71045-5.038178-0.727309-8.655455-4.327728-10.818115-5.053832 2.163864-11.190197 3.617277-18.391034 4.327728-10.818114 0.727309-17.681788 0.727309-20.554899 0-0.727309-6.491591 10.447235-14.064512 33.538081-22.718762 25.96516-12.255873 43.984111-18.74626 54.092978-19.473569 2.874314 0 5.764282 3.245193 8.655455 9.736784 2.874314 6.491591 3.245193 10.108868 1.081329 10.818115-0.727309 0-3.245193 0.372083-7.57292 1.081329-15.87315 0.727309-28.127819 2.534743-36.783274 5.409057-6.491591 3.617277-8.655455 5.78114-6.491591 6.491591 2.874314 0.727309 7.572921 2.163864 14.064512 4.327727 5.764282 2.163864 9.364701 3.245193 10.818114 3.245194 1.436555 0 4.682953-0.355225 9.736784-1.08133 12.255873-2.874314 20.554898-3.955644 24.882626-3.245193 2.163864 0 3.600419 1.808638 4.327727 5.409057 0.71045 5.053832 0.355225 9.026334-1.08133 11.900648-0.727309 1.453413-9.026334 3.972502-24.882625 7.57292-8.655455 2.163864-14.064512 3.617277-16.228376 4.327728-2.889968 3.617277-3.617277 6.491591-2.163863 8.655454 2.874314 0.727309 11.528565 1.808638 25.965159 3.245194h12.981978c7.928146 0.727309 13.337203 1.08133 16.228375 1.081329 3.600419 0 6.119508 3.972502 7.572921 11.900648 1.436555 10.818114 1.08133 16.95448-1.08133 18.391035-1.453413 0-6.491591-1.79178-15.145841-5.409057-29.581232-11.528565-46.890937-15.856292-51.929115-12.981978-0.727309 0-0.727309 1.08133 0 3.245194 1.436555 6.491591 1.08133 11.900648-1.08133 16.228375 0 0.727309 1.79178 0.727309 5.409057 0 3.600419-0.71045 6.119508-1.08133 7.572921-1.08133 18.020155 0.727309 28.127819 4.327727 30.291682 10.818114 1.436555 2.889968-2.889968 7.572921-12.981977 14.064512-2.163864 1.453413-3.972502 2.534743-5.409057 3.245193-0.727309 0.727309-2.534743 2.163864-5.409057 4.327727-3.617277 2.163864-6.136366 3.972502-7.572921 5.409057-2.163864 5.053832-1.453413 8.300229 2.163864 9.736785 18.020155 0 35.70074-0.71045 53.010444-2.163864h1.08133c3.600419-1.436555 6.846816-1.79178 9.736784-1.08133 5.764282 5.053832 10.09201 12.981978 12.981978 23.801296 1.436555 7.220104-0.372083 11.191402-5.410261 11.901852z"  /></svg>