<?xml version="1.0" standalone="no"?><!DOCTYPE svg PUBLIC "-//W3C//DTD SVG 1.1//EN" "http://www.w3.org/Graphics/SVG/1.1/DTD/svg11.dtd"><svg t="1493439410657" class="icon" style="" viewBox="0 0 1024 1024" version="1.1" xmlns="http://www.w3.org/2000/svg" p-id="4760" xmlns:xlink="http://www.w3.org/1999/xlink" width="200" height="200"><defs><style type="text/css"></style></defs><path d="M691.674 571.62L502.577 682.205c-61.044-37.419-177.003-101.777-177.003-101.777L116.001 784.711l167.487 3.691 3.732 167.526 224.535-223.393c26.839 25.732 59.069 56.303 58.185 57.062l166.29 166.33 3.732-167.525 167.488-3.69L691.674 571.62z" fill="#FFC900" p-id="4761"></path><path d="M648.9 591.75l-146.323 90.454c-61.044-37.419-143.035-90.454-143.035-90.454L163.28 785.494l120.206 2.908 3.086 95.222 192.485-191.228c26.838 25.732 60.014 0.499 59.13 1.257l198.777 201.293 2.997-106.545 114.004-2.908L648.9 591.75z" fill="#FF3C07" p-id="4762"></path><path d="M621.973 694.488l64.56 10.64a40.986 40.986 0 0 0 30.752-7.274 41.009 41.009 0 0 0 16.407-27.036l9.745-64.6a40.218 40.218 0 0 1 21.743-29.912l58.467-29.259c9.797-4.886 17.207-13.544 20.601-23.939a40.927 40.927 0 0 0-2.566-31.486l-30.062-58.116a40.108 40.108 0 0 1 0-36.913l30.062-58.113a40.93 40.93 0 0 0 2.566-31.485c-3.394-10.395-10.804-19.056-20.601-23.941l-58.467-29.26a40.21 40.21 0 0 1-21.743-29.938l-9.745-64.573a41.002 41.002 0 0 0-16.407-27.033 40.98 40.98 0 0 0-30.752-7.277l-64.56 10.643c-12.88 2.115-25.964-2.119-35.125-11.402l-45.98-46.577a40.906 40.906 0 0 0-29.15-12.214 40.905 40.905 0 0 0-29.137 12.213l-45.98 46.577c-9.16 9.283-22.244 13.517-35.125 11.402l-64.56-10.643c-10.802-1.79-21.876 0.842-30.751 7.277a41.014 41.014 0 0 0-16.409 27.033l-9.745 64.599a40.215 40.215 0 0 1-21.74 29.912l-58.467 29.26c-9.8 4.885-17.21 13.546-20.603 23.94a40.921 40.921 0 0 0 2.566 31.486l30.061 58.113a40.108 40.108 0 0 1 0 36.913l-30.061 58.116a40.922 40.922 0 0 0-2.566 31.486c3.394 10.395 10.803 19.053 20.603 23.94l58.466 29.258a40.22 40.22 0 0 1 21.741 29.94l9.745 64.571a41.024 41.024 0 0 0 16.409 27.036c8.876 6.431 19.95 9.063 30.751 7.274l64.56-10.64c12.88-2.118 25.963 2.117 35.125 11.399l45.98 46.578a40.891 40.891 0 0 0 29.138 12.215 40.902 40.902 0 0 0 29.15-12.215l45.98-46.578c9.16-9.28 22.243-13.515 35.124-11.397z" fill="#FAC77D" p-id="4763"></path><path d="M511.718 651.463c-133.726 0-242.534-108.806-242.534-242.52 0-133.74 108.808-242.547 242.534-242.547 133.742 0 242.55 108.807 242.55 242.548 0 133.713-108.81 242.52-242.55 242.52z" fill="#E1963F" p-id="4764"></path><path d="M511.719 600.845c-105.817 0-191.917-86.097-191.917-191.904 0-105.83 86.1-191.928 191.917-191.928 105.829 0 191.93 86.098 191.93 191.928 0 105.807-86.101 191.904-191.93 191.904z" fill="#F8C171" p-id="4765"></path><path d="M462.955 448.325c4.267 13.866 8 19.466 16.266 25.333 9.066 6.4 20.801 9.6 34.4 9.6 30.934 0 50.4-16 50.4-41.334 0-26.4-18.933-40.8-54.4-40.8-7.466 0-14.133 0.534-21.333 1.334v-21.066c6.134 1.067 12.534 1.6 19.734 1.6 17.6 0 30.667-4 38.933-12.267 6.667-6.4 10.667-16.266 10.667-25.866 0-22.933-16-36.266-42.933-36.266-16.266 0-28 4.534-35.467 14.134-3.733 4.8-5.6 9.067-8.533 18.933l-22.133-4.8c4.533-13.6 7.733-19.733 14.399-26.666 11.733-12.8 29.867-19.467 53.067-19.467 38.666 0 63.199 20.267 63.199 52.267 0 16.266-6.933 30.666-18.666 38.933-6.933 5.066-12.8 7.2-25.066 9.6 15.466 1.599 23.732 4.532 32.8 11.466 11.733 9.067 17.866 23.2 17.866 40.266 0 36-27.734 58.4-72.265 58.4-26.934 0-46.934-7.467-59.734-21.867-5.6-6.4-8.8-12.266-13.6-25.866l22.399-5.601z" fill="#924006" p-id="4766"></path></svg>