<?xml version="1.0" standalone="no"?><!DOCTYPE svg PUBLIC "-//W3C//DTD SVG 1.1//EN" "http://www.w3.org/Graphics/SVG/1.1/DTD/svg11.dtd"><svg t="1493218758903" class="icon" style="" viewBox="0 0 1024 1024" version="1.1" xmlns="http://www.w3.org/2000/svg" p-id="3039" xmlns:xlink="http://www.w3.org/1999/xlink" width="200" height="200"><defs><style type="text/css"></style></defs><path d="M512 804.743344c-4.409426 0-8.819876-1.283226-12.641925-3.852748L73.878614 514.973728c-10.389628-6.983041-13.152555-21.066805-6.170536-31.455409 6.982018-10.392698 21.065781-13.153578 31.455409-6.172583l412.836513 277.422404 412.837536-277.422404c10.385535-6.983041 24.470321-4.222161 31.455409 6.172583 6.982018 10.388605 4.218068 24.472368-6.172583 31.455409L524.640901 800.891619C520.819876 803.460118 516.409426 804.743344 512 804.743344z" p-id="3040"></path><path d="M512 550.510082c-4.409426 0-8.819876-1.283226-12.641925-3.852748L73.878614 260.738419c-10.389628-6.982018-13.152555-21.064758-6.170536-31.455409 6.982018-10.391674 21.065781-13.151531 31.455409-6.170536l412.836513 277.422404 412.837536-277.422404c10.385535-6.985088 24.470321-4.220115 31.455409 6.170536 6.982018 10.390651 4.218068 24.474414-6.172583 31.455409L524.640901 546.658358C520.819876 549.226856 516.409426 550.510082 512 550.510082z" p-id="3041"></path></svg>