<?xml version="1.0" standalone="no"?><!DOCTYPE svg PUBLIC "-//W3C//DTD SVG 1.1//EN" "http://www.w3.org/Graphics/SVG/1.1/DTD/svg11.dtd"><svg t="1493462999800" class="icon" style="" viewBox="0 0 1024 1024" version="1.1" xmlns="http://www.w3.org/2000/svg" p-id="6451" xmlns:xlink="http://www.w3.org/1999/xlink" width="200" height="200"><defs><style type="text/css"></style></defs><path d="M512 97.501c58.656 0 114 11.172 166 33.5 52 22.343 97.328 52.844 136 91.5 38.656 38 69.156 83.001 91.5 135.001 22.329 52 33.5 107.344 33.5 166 0 59.344-11.172 114.844-33.5 166.5-22.343 51.671-52.844 96.844-91.5 135.5-38.672 38.672-84 69.172-136 91.5-52 22.343-107.344 33.5-166 33.5-58.672 0-114-11.156-166-33.5-52-22.329-97.344-52.828-136-91.5-38.672-38.656-69.172-83.828-91.5-135.5-22.343-51.657-33.5-107.156-33.5-166.5 0-58.656 11.156-114 33.5-166 22.329-52 52.828-97.001 91.5-135.001 38.656-38.656 84-69.156 136-91.5 52-22.329 107.328-33.5 166-33.5zM725.001 676.5l-153.001-152.999 153.001-153.001-60-60-153.001 153.001-152.999-153.001-60 60 153.001 153.001-153.001 152.999 60 61.001 153.001-153.001 153.001 153.001 59.999-61.001z" p-id="6452"></path></svg>