<?xml version="1.0" standalone="no"?><!DOCTYPE svg PUBLIC "-//W3C//DTD SVG 1.1//EN" "http://www.w3.org/Graphics/SVG/1.1/DTD/svg11.dtd"><svg t="1493081890646" class="icon" style="" viewBox="0 0 2378 1024" version="1.1" xmlns="http://www.w3.org/2000/svg" p-id="4579" xmlns:xlink="http://www.w3.org/1999/xlink" width="464.453125" height="200"><defs><style type="text/css"></style></defs><path d="M1812.525003 216.865661c-9.730372-3.648889-16.298373-9.973631-20.190521-19.460744-4.257038-10.46015-4.986816-11.068298-16.176743-9.365483-3.892149 0.608148-8.270816 1.581185-11.189928 4.013778-6.081482 5.108445-11.311557 11.311557-17.028151 16.906521-13.379261 13.257632-23.961041 28.339708-29.920893 46.097636-3.284 9.852001-2.675852 21.406818-13.86578 27.123411-7.419408 14.838817-14.838817 29.556004-22.258225 44.394821-1.824445 3.648889-3.040741 7.662668-5.473334 10.825039-10.946668 14.473928-16.906521 31.01556-21.285188 48.4086-1.946074 7.784297-5.838223 14.960447-9.000594 22.379855-1.216296 2.919112-3.52726 5.473334-4.500297 8.514075-5.473334 16.906521-10.825039 33.813042-15.933484 50.841193-4.865186 16.298373-9.730372 32.475116-13.74415 48.895118-6.446371 25.907115-12.284594 51.935859-18.366077 77.964604-1.216296 5.351704-2.432593 10.825039-3.770519 16.784891-14.352298-1.459556-27.4883-3.284-40.745932-3.892149-9.608742-0.486519-19.947262-1.094667-28.704597 1.702815-15.690224 5.108445-31.01556 11.676446-45.367858 19.825632-17.14978 9.608742-34.664449 19.217484-46.705785 35.637487-12.771113 5.959853-17.879558 18.001188-23.474522 29.677634-7.662668 16.541632-15.325336 32.961634-14.717187 51.935859 0.243259 5.594964-0.364889 11.311557-0.851408 17.028151-0.851408 9.243853 1.216296 17.757928 5.959853 25.663856 1.459556 2.432593 3.648889 4.743556 4.135408 7.419408 2.675852 14.473928 13.86578 21.406818 25.663856 25.055707 12.527854 3.892149 19.339114 10.703409 22.014966 22.866374 0.729778 3.162371 1.216296 6.446371 2.554223 9.365483 2.310963 4.500297 4.743556 9.243853 8.027557 12.892743 3.52726 3.892149 7.905927 7.05452 12.284594 9.852001 9.243853 5.838223 18.122817 13.987409 28.218078 16.176743 17.028151 3.648889 34.664449 2.554223 51.084452-5.473334 1.946074-0.973037 4.135408-1.581185 7.905927-3.040741-1.094667 9.365483-2.310963 17.27141-3.040741 25.177337-0.729778 8.027557-8.514075 14.230669-7.297779 24.325929 3.040741-1.337926 4.986816-1.702815 6.446371-2.797482 8.270816-5.838223 16.784891-11.433187 24.325929-18.001188 4.257038-3.770519 8.514075-4.135408 13.379261-3.52726 3.040741 0.364889 6.081482 1.702815 10.21689 2.919112 1.094667-1.581185 2.310963-3.162371 3.40563-4.743556 1.094667-1.581185 2.189334-3.162371 3.40563-4.986816 10.46015 12.162965 9.852001 12.527854 4.013778 22.258225-0.973037 1.702815-0.729778 4.378667-1.946074 5.594964-6.568001 6.568001-3.40563 12.406224 1.216296 18.122817 0.608148 0.729778 2.067704 0.851408 3.162371 1.216296 0.851408-2.432593 1.581185-4.621927 2.554223-7.297779 8.392446 3.52726 16.663262 6.203112 24.08267 10.33852 8.270816 4.621927 15.325336 4.013778 22.501485-1.459556 2.189334-1.702815 4.257038-3.40563 7.05452-5.594964 1.581185 2.554223 2.797482 4.500297 5.473334 8.635705 3.770519-5.838223 6.81126-8.878964 7.905927-12.527854 4.986816-15.811854 11.189928-31.502079 13.62252-47.800451 4.257038-28.339708 5.959853-57.044305 9.000594-85.627272 1.946074-18.487706 3.892149-36.975413 6.081482-55.463119 2.554223-21.285188 5.473334-42.570377 8.149186-63.855565 2.432593-19.582373 4.500297-39.164746 7.419408-58.74712 2.310963-15.203706 5.594964-30.164153 8.635705-45.246229 5.351704-26.150374 10.33852-52.422378 16.541632-78.451122 4.500297-18.852595 10.825039-37.218672 15.933484-55.828008 2.189334-8.149186 3.284-16.541632 5.351704-24.812448 7.297779-30.285782 14.717187-60.449935 22.014966-90.857346 2.189334-9.000594 2.797482-18.487706 5.716593-27.245041 5.716593-17.27141 12.162965-34.299561 19.095855-51.084452 3.648889-8.878964-1.337926-18.852595 4.257038-27.366671 0.608148-0.851408-0.973037-4.013778-2.310963-5.230075C1820.066041 221.365958 1816.538781 218.325217 1812.525003 216.865661zM1572.18482 708.127806c-2.675852 3.770519-3.892149 8.635705-5.716593 13.014372-0.729778 1.824445-1.216296 3.892149-2.310963 5.473334-14.109039 20.068892-28.096449 40.259413-42.813636 59.841786-3.892149 5.230075-10.46015 8.514075-18.001188 14.473928-4.257038-13.62252-15.325336-23.596152-5.959853-37.461931 6.081482-32.353486 26.758522-54.490082 52.057489-73.099418 8.392446-6.203112 17.636299-11.068298 30.529041-11.676446C1578.266302 689.6401 1578.387932 699.370472 1572.18482 708.127806z" p-id="4580"></path><path d="M1017.310369 851.042642c-2.189334-2.554223-5.351704-4.257038-7.784297-6.081482 2.675852-5.594964 4.743556-9.730372 7.419408-15.325336-5.230075-2.189334-10.095261-6.324742-13.500891-5.351704-7.784297 2.310963-12.406224 0.364889-15.203706-6.203112-3.52726 1.094667-6.689631 3.162371-9.122224 2.675852-16.784891-3.892149-33.448153 0-48.773489 4.500297-36.002376 10.581779-71.396603 23.717781-108.372016 31.258819-27.73156 5.716593-55.706378 10.581779-83.681197 14.960447-11.068298 1.702815-19.947262 5.716593-26.393633 14.960447-2.067704 2.919112-4.500297 5.959853-7.419408 7.784297-13.74415 8.757335-28.704597 12.892743-44.029932 10.825039 0.729778-11.311557 1.702815-22.501485 1.946074-33.691412 0.486519-16.906521 0-33.813042 0.729778-50.719563 0.364889-7.419408 4.257038-9.365483 12.406224-9.243853 8.878964 0.12163 17.757928 0.364889 26.515263-0.486519 25.298967-2.797482 50.597933-5.838223 75.653641-9.487112 23.109633-3.40563 46.219266-7.176149 69.207269-11.676446 25.055707-4.865186 49.746526-11.189928 74.802233-15.933484 17.028151-3.162371 34.42119-4.500297 51.6926-6.689631 6.324742-0.851408 13.014372-1.216296 16.298373-8.149186-2.310963-3.52726-4.257038-6.81126-6.81126-10.946668 4.621927-1.581185 8.270816-2.919112 12.649483-4.500297-1.702815-9.852001 8.270816-9.852001 14.352298-15.446965-3.162371-3.892149-5.838223-7.662668-9.000594-11.068298-3.40563-3.648889-7.176149-6.93289-11.919705-11.676446 5.473334-1.216296 8.757335-1.946074 12.649483-2.797482-19.217484-13.987409-19.217484-13.86578-41.597339-9.730372-2.797482 0.486519-5.594964 0.486519-8.392446 0.608148-23.352892 1.581185-46.827414 2.432593-70.058677 4.986816-17.27141 1.946074-34.177931 6.081482-51.327711 9.487112-11.068298 2.189334-22.258225 4.257038-33.204894 6.93289-15.325336 3.770519-30.407412 8.270816-45.732747 12.162965-19.095855 4.865186-38.313339 9.487112-57.652453 13.86578-4.986816 1.094667-10.21689 0.973037-15.811854 1.459556 0-3.40563-0.486519-5.594964 0.12163-7.297779 2.432593-7.297779 5.473334-14.352298 7.784297-21.650077 3.284-11.068298 5.838223-22.258225 9.122224-33.326523 3.52726-12.041335 7.419408-23.961041 11.554816-35.759116 3.892149-11.068298 7.297779-22.379855 12.527854-32.718375 8.392446-16.298373 15.203706-32.840005 16.784891-51.327711 0.486519-5.959853 2.189334-11.919705 4.135408-17.636299 3.284-9.608742 5.473334-10.703409 15.933484-9.973631 4.013778 0.243259 8.149186 0 12.162965 0.486519 35.150968 3.892149 70.301936 3.648889 105.331274-2.310963 8.635705-1.459556 17.14978-4.135408 23.109633-12.771113-3.040741-2.919112-5.838223-5.473334-9.608742-9.122224 7.297779-1.946074 11.068298-5.959853 12.041335-12.527854 0.12163-1.094667 1.216296-2.067704 1.946074-3.040741 6.081482-8.149186 6.081482-16.298373-0.12163-24.447559-1.094667-1.459556-2.189334-3.40563-2.432593-5.230075-1.216296-10.581779-4.013778-13.014372-13.86578-12.162965-17.636299 1.581185-35.150968 5.594964-53.152156 3.40563-5.716593-0.729778-11.676446 1.702815-17.636299 2.554223-11.189928 1.459556-22.258225 3.162371-33.569783 3.892149-9.243853 0.608148-18.487706-0.243259-27.73156-0.243259-5.230075 0-10.581779 0.851408-15.690224 0.364889-26.515263-2.919112-53.030526-6.081482-79.545789-9.243853-12.892743-1.459556-25.663856-3.40563-38.556598-4.500297-11.798076-0.973037-15.811854 3.770519-13.500891 15.203706 0.243259 1.216296 0.729778 2.310963 1.094667 3.52726 1.946074 7.905927 1.337926 9.365483-6.203112 13.257632-12.041335 6.081482-13.62252 16.298373-3.162371 24.447559 7.297779 5.716593 15.568595 10.21689 25.055707 11.433187 24.812448 3.162371 49.624896 6.568001 74.437344 9.852001 2.189334 0.243259 4.378667 1.337926 6.203112 1.946074 0.12163 1.581185 0.486519 2.554223 0.243259 3.162371-3.40563 8.392446-10.703409 12.892743-17.879558 17.514669-2.554223 1.581185-5.594964 3.770519-6.446371 6.324742-1.824445 5.838223-4.378667 10.46015-9.000594 15.082076-7.297779 7.297779-12.649483 16.420002-18.487706 25.055707-6.689631 10.095261-12.527854 20.79867-19.460744 30.650671-3.892149 5.473334-10.703409 9.000594-13.74415 14.717187-2.919112 5.716593-2.067704 13.257632-4.013778 19.825632-1.702815 5.716593-5.230075 10.946668-7.176149 16.663262-1.946074 5.838223-3.770519 11.189928-9.122224 15.203706-2.189334 1.702815-2.919112 6.324742-2.797482 9.608742 0.12163 5.351704 0.608148 10.581779-3.52726 14.838817-9.122224 9.365483-9.852001 20.55541-7.541038 32.840005 0.973037 4.986816 0.608148 10.46015 0.12163 15.568595-0.486519 5.108445-2.310963 10.21689-3.162371 15.325336-1.337926 9.243853-2.189334 18.487706-3.52726 27.73156-2.797482 18.974225-2.432593 37.94845 1.094667 56.679416 0.486519 2.675852 3.040741 5.594964 5.473334 7.297779 2.919112 2.067704 6.689631 2.919112 9.973631 4.257038 8.878964 3.52726 10.46015 5.594964 10.46015 15.446965 0 8.027557 0.486519 16.298373-0.851408 24.2043-1.946074 11.554816 6.324742 16.663262 12.649483 23.109633 1.459556 1.459556 4.743556 2.189334 6.689631 1.581185 10.703409-3.40563 22.744744-5.230075 25.663856-19.460744 0.364889-2.067704 3.770519-3.52726 4.621927-4.378667 5.351704 4.986816 9.973631 9.365483 14.595558 13.62252 8.635705-3.040741 15.325336 3.52726 23.352892 4.378667 16.420002 1.824445 32.840005 4.500297 49.260007 6.324742 9.243853 1.094667 18.609336 2.189334 27.853189 1.459556 24.934078-1.946074 50.111415-3.040741 74.680603-9.122224 18.366077-4.621927 37.340302-6.93289 55.584749-11.798076 18.001188-4.743556 35.394227-11.676446 53.152156-16.906521 24.690818-7.297779 45.732747-20.79867 66.166528-35.880746 2.797482-2.067704 7.662668-2.675852 6.203112-7.419408C1022.297185 857.367383 1019.864592 853.961753 1017.310369 851.042642z" p-id="4581"></path><path d="M1346.683454 743.278774c-4.986816-19.704003-14.352298-36.853783-36.245635-43.543414-9.365483-2.797482-16.784891-9.365483-23.596152-16.541632-10.21689-10.825039-20.920299-21.285188-31.866968-31.258819-6.81126-6.203112-15.325336-5.594964-24.08267-4.013778-8.027557 1.337926-8.149186 7.541038-9.730372 13.379261-12.041335-0.364889-23.231263 7.419408-32.475116 0.729778-11.798076 4.135408-21.528448 9.122224-31.866968 10.581779-5.959853 0.851408-11.554816 0.608148-17.028151 4.135408-3.52726 2.310963-7.905927 3.284-12.892743 5.230075-3.284-7.905927-7.05452-14.352298-8.514075-21.285188-1.337926-6.568001-0.243259-13.74415-0.243259-20.55541-9.730372 0.243259-17.27141 3.284-21.528448 12.649483-1.337926 2.919112-5.351704 4.500297-8.149186 6.93289-6.93289 5.838223-13.86578 11.798076-10.825039 20.67704-4.378667 5.959853-8.027557 10.703409-11.189928 15.690224-4.621927 7.419408-8.027557 15.446965-13.500891 22.501485-6.203112 8.149186-11.189928 18.001188-14.109039 27.974819-4.621927 15.568595-9.487112 30.650671-18.852595 44.273192-9.730372 14.109039-4.865186 22.866374 11.798076 23.961041 0.851408 0 1.581185 0.12163 2.432593 0 11.311557-1.216296 18.001188 3.284 17.27141 18.974225-0.486519 10.095261 1.337926 18.609336 7.905927 25.663856 6.203112 6.689631 12.041335 14.717187 23.352892 12.284594 1.581185-0.364889 3.648889 1.337926 5.473334 2.067704 8.757335 3.284 20.55541-3.162371 22.379855-12.406224 1.946074-9.852001 3.648889-19.704003 5.716593-29.556004 7.905927-35.515857 18.366077-70.423566 23.717781-106.547571 1.216296-8.270816 1.581185-15.933484-0.364889-23.839411-0.486519-2.189334-0.729778-4.378667-1.094667-6.324742 25.663856-11.189928 50.719563-3.284 75.77527-1.581185 1.216296 0.12163 2.310963 0.729778 3.40563 1.094667 6.203112 1.824445 12.406224 3.40563 18.487706 5.351704 3.040741 0.973037 6.203112 1.824445 8.878964 3.52726 15.690224 9.608742 20.55541 22.623114 15.082076 40.381043-1.946074 6.203112-3.648889 11.919705-0.729778 18.730966 1.581185 3.892149 0.243259 9.487112-0.851408 13.987409-2.189334 8.514075-0.851408 10.946668 8.027557 11.554816 5.594964 0.364889 11.311557 0.243259 17.028151 0.12163 4.500297-0.12163 7.784297 1.581185 9.487112 5.959853 4.986816 12.771113 8.392446 25.785485 4.743556 39.772895 3.040741 4.621927 6.203112 9.243853 8.878964 13.257632 4.986816 0.243259 9.608742-0.364889 13.500891 0.851408 14.473928 4.621927 22.988003-1.459556 21.771707-16.420002-0.364889-4.257038 1.216296-6.81126 3.284-10.46015 5.108445-8.878964 12.041335-17.39304 9.122224-29.799264C1350.940492 775.389001 1350.697232 758.847369 1346.683454 743.278774z" p-id="4582"></path><path d="M1095.639862 312.831453c-5.230075 29.434375-9.243853 59.112009-13.74415 88.789642-0.12163 0.973037 0.973037 2.067704 1.946074 4.378667 5.351704-1.094667 10.703409-2.189334 16.055113-3.284 9.000594-1.946074 11.068298-0.851408 15.446965 7.297779 2.432593 4.621927 5.108445 9.243853 8.270816 13.257632 4.013778 4.986816 9.973631 5.351704 15.568595 3.648889 5.473334-1.581185 6.93289-6.324742 7.297779-11.433187 0.243259-4.013778 0-8.270816 0.973037-12.041335 0.851408-3.284 2.189334-7.419408 4.743556-9.122224 5.959853-3.892149 7.05452-9.487112 7.662668-15.690224 2.067704-21.406818 4.257038-42.692006 6.203112-64.098824 1.094667-10.946668 4.621927-20.55541 14.109039-27.001782 9.243853-6.324742 19.095855-10.46015 30.650671-9.973631 9.852001 0.364889 12.892743 2.432593 14.838817 12.406224 3.770519 19.217484 5.108445 38.191709-0.12163 57.652453-3.040741 11.068298-3.648889 22.744744-5.351704 34.177931 0.973037 0.729778 1.946074 1.459556 2.919112 2.189334 4.013778-1.337926 8.027557-2.797482 12.162965-4.135408 5.594964-1.824445 11.554816-2.797482 16.055113 1.581185 4.135408 4.135408 7.905927 9.000594 10.46015 14.230669 2.310963 4.743556 5.351704 6.81126 10.33852 6.689631 5.108445-0.12163 9.243853-1.581185 11.676446-6.93289 3.892149-8.270816 2.310963-16.541632 0.973037-24.934078-1.702815-10.703409-3.648889-21.528448-4.500297-32.353486-1.581185-19.095855-5.473334-37.583561-10.581779-55.949638-4.500297-16.055113-15.082076-24.325929-30.042523-28.461337-18.974225-5.230075-37.583561-13.014372-57.895712-12.406224-0.608148 0-1.216296-0.973037-3.40563-2.675852 5.594964-24.690818 10.946668-50.233044 17.39304-75.653641 6.689631-25.785485 15.690224-50.841193 30.407412-75.288752-11.798076-4.500297-10.581779-19.947262-25.298967-22.744744-6.203112 6.446371-13.136002 13.74415-20.068892 20.920299-13.500891 13.62252-23.474522 29.677634-32.840005 46.097636-2.432593 4.135408-3.162371 9.122224-5.351704 13.500891-13.136002 26.636893-22.866374 54.490082-29.677634 83.194679C1106.464901 256.516926 1100.626678 284.613375 1095.639862 312.831453z" p-id="4583"></path><path d="M820.878489 203.851289c3.892149 1.824445 8.270816 2.675852 12.284594 3.892149 0 1.946074 0.12163 3.162371 0 4.257038-0.486519 3.40563-2.432593 7.541038-1.094667 9.852001 1.824445 3.040741 6.081482 5.838223 9.608742 6.446371 5.838223 0.973037 12.284594 0.973037 18.001188-0.364889 20.068892-4.621927 40.016154-9.852001 60.085046-14.960447 25.907115-6.568001 51.81423-13.257632 77.721345-19.582373 2.310963-0.608148 4.986816 0.243259 8.878964 0.608148-3.162371 6.689631-6.568001 11.798076-8.149186 17.39304-6.446371 22.501485-12.771113 45.002969-18.366077 67.747714-5.108445 20.67704-9.122224 41.47571-13.74415 62.274379-5.594964 24.812448-11.311557 49.503266-17.27141 74.194085-1.459556 6.081482 1.216296 8.878964 6.446371 11.068298 12.649483 5.351704 15.203706 9.973631 12.041335 22.866374-1.216296 4.865186 0.973037 6.81126 4.621927 8.270816 4.986816 2.067704 10.095261 1.094667 13.500891-2.554223 3.648889-4.013778 7.419408-9.000594 8.635705-14.109039 4.621927-20.433781 8.149186-41.23245 12.041335-61.787861 0.486519-2.797482 1.581185-5.473334 2.189334-8.149186 1.216296-5.473334 2.432593-10.946668 3.40563-16.420002 3.52726-20.312151 6.93289-40.745932 10.581779-60.936453 2.067704-11.068298 4.986816-22.014966 6.81126-33.083264 4.378667-26.150374 11.676446-50.597933 27.60993-72.734529 9.122224-12.771113 20.920299-16.541632 34.056301-17.028151 8.757335-0.364889 16.420002-1.337926 24.2043-5.594964 5.351704-2.919112 11.919705-3.770519 11.919705-11.676446 0.12163-8.027557-7.297779-7.419408-11.676446-9.852001-0.729778-3.284-0.851408-6.446371-2.067704-9.243853-5.594964-13.014372-22.744744-22.014966-38.07008-18.730966-20.190521 4.257038-40.016154 9.973631-60.085046 14.838817-22.744744 5.594964-45.489488 10.703409-68.112602 16.420002-17.27141 4.257038-34.42119 9.243853-51.6926 13.62252-12.162965 3.162371-25.055707 6.081482-34.299561 14.595558-10.946668 10.33852-24.08267 14.109039-37.583561 18.366077-0.729778 0.243259-1.824445 0.12163-2.310963 0.608148-1.459556 1.216296-3.770519 2.919112-3.648889 4.135408C817.594489 200.324029 819.054044 203.121511 820.878489 203.851289z" p-id="4584"></path><path d="M1473.056658 463.165697c1.946074-0.486519 4.013778-0.364889 6.081482-0.486519 13.014372-0.486519 15.933484-3.52726 15.203706-15.933484-0.243259-5.351704-3.40563-8.878964-8.514075-7.297779-4.986816 1.459556-8.392446-0.12163-12.406224-2.310963-18.852595-10.21689-37.82682-20.190521-56.557786-30.407412-15.933484-8.635705-31.745338-17.757928-47.800451-26.272004-5.838223-3.040741-8.149186-7.662668-8.149186-13.74415 0-6.446371 0.608148-12.892743 0.729778-19.339114 0.12163-11.068298 0.12163-10.703409 11.068298-12.892743 20.55541-4.135408 41.35408-7.662668 61.544601-13.257632 18.609336-5.108445 35.029338-14.717187 46.827414-30.772301 3.162371-4.378667 4.378667-8.757335 4.013778-14.595558-1.094667-15.811854-8.635705-27.73156-19.582373-38.434969-16.784891-16.541632-35.880746-22.014966-58.868749-15.811854-20.67704 5.473334-39.164746 15.325336-57.409193 25.907115-17.14978 9.973631-30.407412 23.961041-40.016154 41.35408-12.041335 21.771707-14.595558 45.976007-17.514669 74.194085 1.946074 8.027557 4.378667 19.947262 7.541038 31.623708 2.189334 8.149186 7.541038 13.987409 14.717187 18.487706 16.055113 10.21689 33.813042 14.960447 52.300748 18.609336 7.419408 1.459556 14.717187 4.013778 21.650077 7.05452 6.689631 2.919112 12.771113 7.05452 19.095855 10.46015C1427.567169 460.489844 1448.852358 468.76066 1473.056658 463.165697zM1423.188502 268.436631c-3.770519 10.825039-19.582373 19.460744-40.867561 21.893337C1391.199905 277.558855 1412.849982 266.368927 1423.188502 268.436631z" p-id="4585"></path><path d="M2377.008196 522.399335c-0.364889-8.757335-1.216296-9.852001-9.852001-9.973631-12.527854-0.243259-25.177337-0.12163-37.705191-0.12163-21.528448 0-42.935265-0.12163-64.463713 0.12163-3.52726 0-9.608742 0.729778-9.973631 2.189334-1.459556 6.081482-2.189334 12.649483-1.337926 18.852595 0.729778 5.108445 6.324742 4.135408 10.21689 4.135408 17.028151 0.12163 34.056301 0 51.084452 0 16.663262 0 33.204894 0.12163 49.868155 0 11.554816-0.12163 12.162965-0.973037 12.162965-12.649483C2377.008196 523.98052 2377.129825 523.250742 2377.008196 522.399335z" p-id="4586"></path><path d="M103.871719 512.425704c-31.502079-0.243259-63.004157-0.12163-94.506236-0.12163-1.216296 0-2.797482-0.243259-3.52726 0.364889-1.946074 1.581185-4.257038 3.284-5.230075 5.594964-0.973037 2.067704-0.486519 4.743556-0.364889 7.176149 0.12163 10.946668 0.973037 11.919705 11.554816 12.041335 14.960447 0.12163 29.920893 0 44.88134 0 0 0 0 0 0 0 15.325336 0 30.650671 0.12163 46.097636-0.12163 9.122224-0.12163 10.46015-1.702815 10.825039-10.703409 0.12163-1.581185 0.12163-3.284 0-4.865186C112.750683 514.250148 111.534387 512.547333 103.871719 512.425704z" p-id="4587"></path></svg>