<?xml version="1.0" standalone="no"?><!DOCTYPE svg PUBLIC "-//W3C//DTD SVG 1.1//EN" "http://www.w3.org/Graphics/SVG/1.1/DTD/svg11.dtd"><svg class="icon" width="200px" height="200.00px" viewBox="0 0 1024 1024" version="1.1" xmlns="http://www.w3.org/2000/svg"><path d="M393.014085 728.338028c-21.633803 3.605634-82.929577 14.422535-118.985915 0-39.661972-18.028169-39.661972-64.901408-39.661972-68.507042l0-39.661972-180.28169 187.492958 201.915493 0 0 194.704225 205.521127-209.126761-64.901408-68.507042L393.014085 728.338028zM778.816901 623.774648l-3.605634 32.450704c0 14.422535-7.211268 50.478873-28.84507 64.901408-21.633803 14.422535-46.873239 14.422535-64.901408 14.422535-3.605634 0-10.816901 0-14.422535 0-21.633803 0-39.661972-10.816901-39.661972-10.816901L616.56338 721.126761 555.267606 793.239437l205.521127 205.521127 3.605634-191.098592 201.915493-3.605634L778.816901 623.774648zM609.352113 703.098592c7.211268-7.211268 25.239437 0 43.267606 3.605634 14.422535 3.605634 32.450704 10.816901 46.873239 10.816901 43.267606 0 64.901408-50.478873 64.901408-100.957746 0-21.633803 14.422535-32.450704 39.661972-50.478873 7.211268-3.605634 14.422535-7.211268 21.633803-10.816901 32.450704-21.633803 46.873239-36.056338 46.873239-72.112676 0-18.028169-10.816901-36.056338-21.633803-50.478873-7.211268-10.816901-14.422535-21.633803-18.028169-32.450704-3.605634-10.816901 7.211268-28.84507 14.422535-46.873239 10.816901-18.028169 21.633803-36.056338 21.633803-54.084507 0-43.267606-46.873239-61.295775-82.929577-79.323944l-7.211268-3.605634c-14.422535-7.211268-14.422535-21.633803-18.028169-46.873239 0-14.422535-3.605634-36.056338-10.816901-54.084507-18.028169-43.267606-61.295775-36.056338-97.352113-28.84507-10.816901 3.605634-21.633803 3.605634-32.450704 3.605634-25.239437 0-43.267606-18.028169-64.901408-43.267606l-3.605634-7.211268c-14.422535-14.422535-25.239437-21.633803-43.267606-25.239437-14.422535 0-32.450704 7.211268-46.873239 25.239437-18.028169 18.028169-36.056338 36.056338-43.267606 46.873239-18.028169-3.605634-61.295775-7.211268-97.352113-7.211268C252.394366 82.929577 252.394366 165.859155 252.394366 191.098592c0 21.633803-25.239437 39.661972-72.112676 57.690141C165.859155 256 158.647887 263.211268 155.042254 274.028169 144.225352 295.661972 155.042254 320.901408 176.676056 367.774648 194.704225 407.43662 180.28169 432.676056 158.647887 461.521127c-3.605634 3.605634-7.211268 10.816901-10.816901 14.422535-10.816901 18.028169-7.211268 32.450704-3.605634 43.267606 10.816901 28.84507 46.873239 43.267606 72.112676 50.478873 28.84507 7.211268 43.267606 32.450704 43.267606 72.112676 0 32.450704 7.211268 68.507042 50.478873 68.507042 14.422535 0 28.84507 0 46.873239-3.605634 18.028169 0 32.450704-3.605634 46.873239-3.605634 7.211268 0 28.84507 18.028169 39.661972 32.450704 18.028169 18.028169 32.450704 32.450704 50.478873 39.661972 3.605634 0 7.211268 3.605634 10.816901 3.605634C540.84507 778.816901 576.901408 742.760563 609.352113 703.098592zM277.633803 396.619718c0-129.802817 104.56338-234.366197 234.366197-234.366197s234.366197 104.56338 234.366197 234.366197c0 129.802817-104.56338 234.366197-234.366197 234.366197S277.633803 526.422535 277.633803 396.619718zM512 191.098592c-111.774648 0-205.521127 90.140845-205.521127 205.521127 0 111.774648 90.140845 205.521127 205.521127 205.521127 111.774648 0 205.521127-90.140845 205.521127-205.521127C717.521127 284.84507 623.774648 191.098592 512 191.098592zM555.267606 472.338028c7.211268 0 10.816901 0 14.422535 0 3.605634 0 7.211268-3.605634 7.211268-3.605634 0-3.605634 0-3.605634 0-7.211268l0-93.746479-25.239437 0c-10.816901 0-21.633803 0-28.84507 0-7.211268 0-14.422535 0-21.633803 0L501.183099 346.140845c7.211268 0 14.422535 0 21.633803 0 7.211268 0 18.028169 0 28.84507 0l25.239437 0c0-7.211268 0-14.422535 0-18.028169 0-3.605634 0-10.816901 0-14.422535 0-3.605634 0-7.211268 0-10.816901 0-3.605634 0-7.211268 0-7.211268 7.211268 0 10.816901 3.605634 14.422535 3.605634 3.605634 0 7.211268 0 10.816901 0 3.605634 0 3.605634 0 7.211268 3.605634 0 3.605634 0 3.605634-3.605634 7.211268 0 0-3.605634 3.605634-3.605634 3.605634 0 3.605634 0 3.605634 0 7.211268l0 25.239437c7.211268 0 18.028169 0 21.633803 0 7.211268 0 14.422535 0 18.028169 0l0 18.028169c-7.211268 0-10.816901 0-18.028169 0-7.211268 0-14.422535 0-21.633803 0l0 100.957746c0 3.605634 0 7.211268-3.605634 10.816901 0 3.605634-3.605634 7.211268-7.211268 7.211268-3.605634 3.605634-10.816901 3.605634-18.028169 3.605634-7.211268 0-18.028169 3.605634-28.84507 3.605634 0-3.605634 0-7.211268-3.605634-10.816901-3.605634-3.605634-3.605634-7.211268-10.816901-10.816901C537.239437 472.338028 548.056338 472.338028 555.267606 472.338028zM515.605634 393.014085l14.422535-10.816901c7.211268 7.211268 10.816901 14.422535 18.028169 21.633803 3.605634 7.211268 10.816901 14.422535 14.422535 18.028169L544.450704 432.676056c-3.605634-7.211268-7.211268-14.422535-10.816901-21.633803C526.422535 403.830986 519.211268 396.619718 515.605634 393.014085zM374.985915 259.605634c7.211268 0 10.816901 0 18.028169 0 7.211268 0 14.422535 0 25.239437 0 10.816901 0 21.633803 0 36.056338 0 14.422535 0 28.84507 0 50.478873 0 18.028169 0 36.056338 0 50.478873 0 14.422535 0 25.239437 0 36.056338 0 10.816901 0 18.028169 0 25.239437 0 7.211268 0 14.422535 0 18.028169 0l0 61.295775L612.957746 320.901408 612.957746 277.633803l-219.943662 0L393.014085 324.507042l-18.028169 0L374.985915 259.605634zM490.366197 317.295775l0 21.633803c-3.605634 0-10.816901 0-18.028169-3.605634-7.211268 0-18.028169 0-25.239437 0-7.211268 0-18.028169 0-25.239437 0-7.211268 0-14.422535 0-21.633803 3.605634L400.225352 317.295775c3.605634 0 10.816901 0 21.633803 0 7.211268 0 18.028169 0 25.239437 0 7.211268 0 18.028169 0 25.239437 0C479.549296 317.295775 486.760563 317.295775 490.366197 317.295775zM630.985915 512c-7.211268 7.211268-18.028169 14.422535-32.450704 14.422535-14.422535 0-32.450704 0-46.873239 0-14.422535 0-32.450704 0-54.084507 0-7.211268 0-14.422535 0-21.633803-3.605634-3.605634 0-7.211268-3.605634-10.816901-3.605634-3.605634-3.605634-3.605634-7.211268-7.211268-10.816901 0-3.605634 0-7.211268 0-14.422535l0-108.169014-28.84507 0c0 18.028169 0 36.056338-3.605634 46.873239 0 14.422535-3.605634 25.239437-7.211268 36.056338-3.605634 10.816901-7.211268 21.633803-14.422535 28.84507-7.211268 10.816901-14.422535 18.028169-21.633803 28.84507-3.605634-3.605634-7.211268-7.211268-10.816901-7.211268-3.605634 0-7.211268-3.605634-14.422535-3.605634 10.816901-7.211268 18.028169-18.028169 25.239437-25.239437 7.211268-7.211268 10.816901-18.028169 14.422535-25.239437 3.605634-10.816901 7.211268-21.633803 7.211268-32.450704 0-14.422535 3.605634-28.84507 3.605634-46.873239-7.211268 0-18.028169 0-21.633803 0-7.211268 0-10.816901 0-14.422535 3.605634l0-21.633803c3.605634 0 10.816901 3.605634 21.633803 3.605634 10.816901 0 25.239437 0 43.267606 0 10.816901 0 18.028169 0 28.84507 0 7.211268 0 14.422535 0 18.028169 0 3.605634 0 7.211268 0 10.816901 0 3.605634 0 3.605634 0 7.211268 0l0 21.633803c-3.605634 0-14.422535-3.605634-28.84507-3.605634l0 104.56338c0 3.605634 0 7.211268 3.605634 10.816901 3.605634 3.605634 10.816901 3.605634 18.028169 3.605634 18.028169 0 32.450704 0 46.873239 0 14.422535 0 28.84507 0 43.267606-3.605634 7.211268 0 10.816901-3.605634 14.422535-3.605634s7.211268-3.605634 10.816901-7.211268c3.605634-3.605634 3.605634-7.211268 7.211268-10.816901 0-3.605634 3.605634-10.816901 3.605634-18.028169 3.605634 3.605634 7.211268 3.605634 10.816901 7.211268 3.605634 3.605634 7.211268 3.605634 10.816901 3.605634C645.408451 493.971831 638.197183 504.788732 630.985915 512z" /></svg>