<?xml version="1.0" standalone="no"?><!DOCTYPE svg PUBLIC "-//W3C//DTD SVG 1.1//EN" "http://www.w3.org/Graphics/SVG/1.1/DTD/svg11.dtd"><svg t="1493170531421" class="icon" style="" viewBox="0 0 1024 1024" version="1.1" xmlns="http://www.w3.org/2000/svg" p-id="3030" xmlns:xlink="http://www.w3.org/1999/xlink" width="200" height="200"><defs><style type="text/css"></style></defs><path d="M1007.191172 291.565519C957.488167 108.421338 754.567571 10.112312 576.318888 89.554642c-23.224957 10.350742-44.791136 23.505343-65.11809 39.379892-2.023076-1.518586-3.591805-2.734274-5.198395-3.898797-81.507362-59.07035-171.471326-77.822436-268.904403-52.636824C116.007107 103.699804 29.218462 200.026686 8.290827 323.42718c-3.877307 22.859637-5.475711 45.985334-1.956561 69.165266 4.458545 29.368888 14.156418 57.126069 26.134217 84.123956 33.649378 75.844386 80.368422 142.91085 137.13531 203.165166 95.561449 101.43318 202.615651 189.423187 316.074725 269.89087 24.304546 17.237593 47.471175 16.652262 70.712505-1.863441 25.043373-19.951401 50.039673-39.984666 74.497715-60.644195 84.293825-71.199599 164.736948-146.427954 236.969063-230.04128 51.095725-59.147098 94.837972-123.184577 126.45711-194.98588 10.662851-24.213471 19.458167-49.140187 22.24463-75.643817C1019.949754 354.341261 1015.628332 322.651514 1007.191172 291.565519z" p-id="3031"></path></svg>