<?xml version="1.0" standalone="no"?><!DOCTYPE svg PUBLIC "-//W3C//DTD SVG 1.1//EN" "http://www.w3.org/Graphics/SVG/1.1/DTD/svg11.dtd"><svg class="icon" width="200px" height="200.00px" viewBox="0 0 1024 1024" version="1.1" xmlns="http://www.w3.org/2000/svg"><path d="M398.746966 724.324755c-20.840283 3.473983-79.887148 13.893522-114.620953 0-38.207787-17.3663-38.207787-62.520848-38.207787-65.993627v-38.207787L72.249203 800.740329h194.509305v187.562544l197.983288-201.456066-62.520848-65.994831-3.473982 3.472779zM770.40048 623.597324l-3.473983 31.259822c0 13.893522-6.946761 48.627326-27.787043 62.520848s-45.154548 13.893522-62.520848 13.893521h-13.893522c-20.840283 0-38.207787-10.419539-38.207787-10.419539l-10.41954-3.473982-59.048069 69.468813L753.032975 984.82889l3.473983-184.088561 194.509305-3.473983-180.615783-173.669022z"  /><path d="M607.150997 700.011693c6.946761-6.946761 24.313061 0 41.680565 3.472779 13.893522 3.473983 31.259822 10.420743 45.153344 10.420743 41.680565 0 62.522052-48.627326 62.522052-97.254652 0-20.840283 13.893522-31.261026 38.206583-48.627327l20.840283-10.420743c31.261026-20.840283 45.154548-34.733804 45.154547-69.467609 0-17.367504-10.420743-34.733804-20.840282-48.627326-6.946761-10.420743-13.893522-20.840283-17.367505-31.261026-3.472778-10.419539 6.946761-27.787044 13.893522-45.153344 10.420743-17.367504 20.840283-34.733804 20.840283-52.101309 0-41.680565-45.153344-59.04807-79.887148-76.41437l-6.946761-3.473982c-13.893522-6.946761-13.893522-20.840283-17.367505-45.153344 0-13.893522-3.473983-34.733804-10.420743-52.101309-17.3663-41.680565-59.046866-34.733804-93.78067-27.787044-10.420743 3.473983-20.840283 3.473983-31.261026 3.473983-24.313061 0-41.680565-17.367504-62.520848-41.680565l-3.472779-6.946761c-13.893522-13.893522-24.314265-20.840283-41.681769-24.314266-13.893522 0-31.259822 6.946761-45.153344 24.314266-17.367504 17.3663-34.733804 34.733804-41.680565 45.153343-17.367504-3.472778-59.04807-6.946761-93.781874-6.94676-65.994831 3.473983-65.994831 83.361131-65.994831 107.675396 0 20.840283-24.313061 38.206583-69.467609 55.574087-13.893522 6.946761-20.840283 13.893522-24.313061 24.314265-10.420743 20.840283 0 45.153344 20.840283 90.307892 17.3663 38.206583 3.472778 62.520848-17.367505 90.307891-3.472778 3.472778-6.946761 10.419539-10.419539 13.893522-10.420743 17.3663-6.946761 31.261026-3.473983 41.680565 10.420743 27.787044 45.154548 41.680565 69.467609 48.627327 27.787044 6.946761 41.68177 31.261026 41.68177 69.467609 0 31.261026 6.946761 65.994831 48.627326 65.99483 13.893522 0 27.787044 0 45.153344-3.473982 17.367504 0 31.261026-3.472778 45.154548-3.472779 6.946761 0 27.787044 17.3663 38.206583 31.259822 17.367504 17.367504 31.261026 31.261026 48.627326 38.207787 3.473983 0 6.946761 3.473983 10.420744 3.473983 34.733804 0 69.467609-34.735009 100.728635-72.941592zM287.598791 404.773753c0-125.041696 100.728635-225.770331 225.770331-225.770331s225.770331 100.728635 225.770332 225.770331-100.728635 225.770331-225.770332 225.770331-225.770331-100.728635-225.770331-225.770331z"  /><path d="M507.61929 339.561622c-8.159343 1.643669-12.649631 4.490288-13.452802 8.560327a5564.611964 5564.611964 0 0 1-3.669055 113.7359c0 1.643669 3.669055 2.044652 11.007166 1.22342 8.96131-0.80317 13.852581-2.025386 14.675017-3.669056 1.624403-19.567493 2.846619-37.491316 3.669056-53.811206 0.801966-16.29942 1.22342-36.68935 1.22342-61.148114-0.822437-4.070038-5.313929-5.694441-13.452802-4.891271z"  /><path d="M513.369122 206.790466c-107.675396 0-197.983288 86.835113-197.983287 197.983287 0 107.675396 86.835113 197.983288 197.983287 197.983288 107.675396 0 197.983288-86.835113 197.983288-197.983288 0-107.675396-90.307892-197.983288-197.983288-197.983287z m118.99203 288.087677c-0.822437 1.643669-4.089305 1.643669-9.783746 0-16.319891-4.070038-30.574659-6.515674-42.804041-7.338111-11.427416-1.624403-25.682183-2.445636-42.80404-2.445635-29.351239 0-52.1856 1.643669-68.486224 4.892475-17.94309 3.268072-34.663964 8.980576-50.142152 17.121857-8.159343 4.089305-14.274034 3.268072-18.344072-2.445636-7.338111-14.676221-6.53494-21.592879 2.445635-20.790912 3.248806 0.822437 19.147243-2.025386 47.695312-8.560326 4.070038-0.80317 7.338111-1.624403 9.783746-2.445636 4.070038-1.624403 6.114691-3.669055 6.114691-6.114691 1.624403-25.261934 2.846619-42.80404 3.669055-52.587787 0-3.248806-0.42025-4.892475-1.223419-4.892475-0.822437-0.80317-2.865885 0-6.114691 2.445636-14.676221 11.427416-22.013128 19.567493-22.013128 24.459967-3.268072 5.713708-8.159343 6.114691-14.676222 1.22342-3.268072-3.248806-6.937128-9.363497-11.007166-18.344072 0.80317 0.822437 0.80317 0.42025 0-1.22342 0-5.694441 3.248806-9.363497 9.783746-11.007166 4.070038 1.643669 14.254768-2.445636 30.574659-12.229382 2.445636-1.624403 4.471022-2.846619 6.114691-3.669056 4.070038-2.445636 6.515674-5.694441 7.338111-9.783746 0.80317-2.445636 1.22342-12.229382 1.223419-29.351239-0.822437-5.694441-4.089305-6.917861-9.783746-3.669055-4.892475 4.089305-8.159343 3.669055-9.783746-1.22342-7.338111-23.637531-7.338111-35.04568 0-34.243714 21.191895 0 38.312548-0.80317 51.364367-2.445636 13.031348-1.624403 35.866913-6.515674 68.486224-14.676221 7.338111-1.624403 11.007166-0.400983 11.007166 3.669055 1.624403 11.427416 2.846619 17.94309 3.669055 19.567493 0.801966 7.338111-1.643669 10.606183-7.338111 9.783746-5.713708-1.624403-11.828399-1.624403-18.344072 0-4.892475 1.643669-7.75836 4.490288-8.560327 8.560327-2.445636 17.94309-3.669055 34.243714-3.669055 48.918731 0 4.089305 0.400983 6.114691 1.22342 6.114691 0.801966 0.822437 2.846619 0 6.114691-2.445636 15.478188-12.229382 23.236548-20.790912 23.236548-25.682183 0.801966-4.070038 4.070038-5.694441 9.783746-4.892475 8.96131 1.643669 16.29942 7.75836 22.013128 18.344072 2.445636 5.713708 0.400983 8.980576-6.114691 9.783747-9.783746 2.445636-26.103637 9.382763-48.918731 20.790912-6.536145 1.643669-9.382763 4.892475-8.560327 9.783746 0 3.268072-0.421454 9.783746-1.22342 19.567493v15.898437c0.801966 4.089305 2.445636 6.114691 4.892476 6.114691 36.68935 0 57.479058-1.22342 62.371533-3.669055 4.070038-1.624403 7.739094 0 11.007166 4.892475 5.694441 8.159343 9.362293 16.318687 11.007166 24.459968 0.800762 5.713708 0.399779 8.980576-1.224624 9.783746z"  /></svg>